<svg width="38" height="52" viewBox="0 0 38 52" fill="none" xmlns="http://www.w3.org/2000/svg">
<g clip-path="url(#clip0_1_120)">
<g filter="url(#filter0_d_1_120)">
<path d="M24.5692 40.5473V50.2456C24.5692 50.6766 24.4075 51.0538 24.0842 51.377C23.761 51.7003 23.3838 51.862 22.9528 51.862H13.2545C12.8235 51.862 12.4463 51.7003 12.123 51.377C11.7998 51.0538 11.6381 50.6766 11.6381 50.2456V40.5473C11.6381 40.1163 11.7998 39.7391 12.123 39.4158C12.4463 39.0926 12.8235 38.9309 13.2545 38.9309H22.9528C23.3838 38.9309 23.761 39.0926 24.0842 39.4158C24.4075 39.7391 24.5692 40.1163 24.5692 40.5473ZM37.3385 16.3016C37.3385 17.7564 37.1298 19.1168 36.7122 20.383C36.2946 21.6491 35.8232 22.6796 35.2979 23.4743C34.7725 24.269 34.0317 25.0705 33.0753 25.8787C32.119 26.6868 31.3445 27.2728 30.7518 27.6365C30.1591 28.0002 29.3375 28.4783 28.2868 29.071C27.1823 29.6906 26.2596 30.5662 25.5188 31.6976C24.7779 32.8291 24.4075 33.7316 24.4075 34.4051C24.4075 34.863 24.2459 35.3008 23.9226 35.7184C23.5993 36.1359 23.2222 36.3447 22.7911 36.3447H13.0929C12.6888 36.3447 12.3453 36.0955 12.0624 35.5971C11.7796 35.0988 11.6381 34.5936 11.6381 34.0818V32.2634C11.6381 30.0274 12.5137 27.9193 14.2647 25.9393C16.0158 23.9592 17.942 22.4977 20.0433 21.5548C21.6327 20.8275 22.7642 20.0732 23.4377 19.2919C24.1112 18.5107 24.4479 17.487 24.4479 16.2208C24.4479 15.0893 23.8216 14.0926 22.5689 13.2305C21.3162 12.3684 19.8682 11.9374 18.2249 11.9374C16.4738 11.9374 15.019 12.328 13.8606 13.1093C12.9178 13.7828 11.4765 15.3318 9.53682 17.7564C9.18661 18.1874 8.76904 18.4029 8.28413 18.4029C7.96086 18.4029 7.62411 18.2951 7.27389 18.0796L0.646738 13.0284C0.296523 12.759 0.0877403 12.4223 0.0203912 12.0182C-0.046958 11.6141 0.0271261 11.237 0.242643 10.8867C4.55299 3.72079 10.803 0.137817 18.9926 0.137817C21.1478 0.137817 23.3165 0.555382 25.4986 1.39051C27.6807 2.22564 29.6473 3.34364 31.3984 4.7445C33.1494 6.14536 34.5772 7.86276 35.6818 9.89671C36.7863 11.9307 37.3385 14.0656 37.3385 16.3016Z" fill="#DF27E4"/>
</g>
</g>
<defs>
<filter id="filter0_d_1_120" x="-3.00366" y="-2.86218" width="43.3422" height="57.7241" filterUnits="userSpaceOnUse" color-interpolation-filters="sRGB">
<feFlood flood-opacity="0" result="BackgroundImageFix"/>
<feColorMatrix in="SourceAlpha" type="matrix" values="0 0 0 0 0 0 0 0 0 0 0 0 0 0 0 0 0 0 127 0" result="hardAlpha"/>
<feOffset/>
<feGaussianBlur stdDeviation="1.5"/>
<feComposite in2="hardAlpha" operator="out"/>
<feColorMatrix type="matrix" values="0 0 0 0 0.87451 0 0 0 0 0.152941 0 0 0 0 0.894118 0 0 0 1 0"/>
<feBlend mode="normal" in2="BackgroundImageFix" result="effect1_dropShadow_1_120"/>
<feBlend mode="normal" in="SourceGraphic" in2="effect1_dropShadow_1_120" result="shape"/>
</filter>
<clipPath id="clip0_1_120">
<rect width="37.5" height="51.7241" fill="white" transform="translate(0 0.137939)"/>
</clipPath>
</defs>
</svg>
