<svg width="41" height="41" viewBox="0 0 41 41" fill="none" xmlns="http://www.w3.org/2000/svg">
<g clip-path="url(#clip0_1_162)">
<g filter="url(#filter0_d_1_162)">
<path d="M18.3083 30.138C19.5167 25.763 23.7417 22.638 28.6083 23.1546C33.2417 23.6463 36.925 27.5546 37.1583 32.2046C37.2167 33.4296 37.05 34.6046 36.6917 35.6963C36.475 36.363 35.825 36.8046 35.1167 36.8046H10.2983C6.09167 36.8046 2.93666 32.9555 3.76166 28.8305L8.83333 3.47131H18.8333L22.1667 9.30465L15.025 14.413L13 11.8046" fill="#DF27E4"/>
</g>
<path d="M18.3083 30.138C19.5167 25.763 23.7417 22.638 28.6083 23.1546C33.2417 23.6463 36.925 27.5546 37.1583 32.2046C37.2167 33.4296 37.05 34.6046 36.6917 35.6963C36.475 36.363 35.825 36.8046 35.1167 36.8046H10.2983C6.09167 36.8046 2.93666 32.9555 3.76166 28.8305L8.83333 3.47131H18.8333L22.1667 9.30465L15.025 14.413L13 11.8046M15.0333 14.413L18.8333 28.4713" stroke="#DF27E4" stroke-width="4.31034" stroke-miterlimit="2" stroke-linecap="round" stroke-linejoin="round"/>
</g>
<defs>
<filter id="filter0_d_1_162" x="0.629944" y="0.471313" width="39.5398" height="39.3334" filterUnits="userSpaceOnUse" color-interpolation-filters="sRGB">
<feFlood flood-opacity="0" result="BackgroundImageFix"/>
<feColorMatrix in="SourceAlpha" type="matrix" values="0 0 0 0 0 0 0 0 0 0 0 0 0 0 0 0 0 0 127 0" result="hardAlpha"/>
<feOffset/>
<feGaussianBlur stdDeviation="1.5"/>
<feComposite in2="hardAlpha" operator="out"/>
<feColorMatrix type="matrix" values="0 0 0 0 0.87451 0 0 0 0 0.152941 0 0 0 0 0.894118 0 0 0 1 0"/>
<feBlend mode="normal" in2="BackgroundImageFix" result="effect1_dropShadow_1_162"/>
<feBlend mode="normal" in="SourceGraphic" in2="effect1_dropShadow_1_162" result="shape"/>
</filter>
<clipPath id="clip0_1_162">
<rect width="40" height="40" fill="white" transform="translate(0.5 0.137939)"/>
</clipPath>
</defs>
</svg>
