<svg width="53" height="52" viewBox="0 0 53 52" fill="none" xmlns="http://www.w3.org/2000/svg">
<g filter="url(#filter0_d_1_129)">
<path fill-rule="evenodd" clip-rule="evenodd" d="M6.96552 13.069C6.96582 11.8598 7.30522 10.675 7.94516 9.64897C8.5851 8.62298 9.49993 7.79702 10.5857 7.26488C11.6716 6.73275 12.8848 6.51577 14.0878 6.6386C15.2907 6.76143 16.4351 7.21914 17.391 7.95974C18.3468 8.70034 19.0759 9.69415 19.4952 10.8283C19.9146 11.9624 20.0075 13.1915 19.7635 14.3758C19.5194 15.5601 18.9481 16.6522 18.1144 17.5281C17.2808 18.404 16.2182 19.0286 15.0474 19.3309V37.3147C15.0474 38.6008 15.5583 39.8342 16.4677 40.7436C17.3771 41.653 18.6105 42.1639 19.8965 42.1639C21.1826 42.1639 22.416 41.653 23.3254 40.7436C24.2348 39.8342 24.7457 38.6008 24.7457 37.3147V14.6854C24.7457 12.542 25.5972 10.4863 27.1128 8.97065C28.6285 7.455 30.6841 6.60352 32.8276 6.60352C34.971 6.60352 37.0267 7.455 38.5423 8.97065C40.058 10.4863 40.9095 12.542 40.9095 14.6854V24.3837H37.6767V14.6854C37.6767 13.3993 37.1658 12.1659 36.2564 11.2566C35.3471 10.3472 34.1137 9.83627 32.8276 9.83627C31.5415 9.83627 30.3081 10.3472 29.3987 11.2566C28.4893 12.1659 27.9784 13.3993 27.9784 14.6854V37.3147C27.9784 39.4582 27.127 41.5138 25.6113 43.0295C24.0957 44.5451 22.04 45.3966 19.8965 45.3966C17.7531 45.3966 15.6974 44.5451 14.1818 43.0295C12.6661 41.5138 11.8147 39.4582 11.8147 37.3147V19.3309C10.4265 18.9725 9.19688 18.1629 8.31909 17.0293C7.4413 15.8958 6.96515 14.5027 6.96552 13.069ZM32.8276 34.082C32.8276 32.3672 33.5088 30.7227 34.7213 29.5102C35.9338 28.2976 37.5783 27.6164 39.2931 27.6164C41.0079 27.6164 42.6524 28.2976 43.8649 29.5102C45.0774 30.7227 45.7586 32.3672 45.7586 34.082C45.7585 35.9891 45.2985 37.8681 44.4178 39.5597C43.5371 41.2514 42.2616 42.7057 40.6994 43.7996L39.2931 44.7824L37.8868 43.7996C36.3246 42.7057 35.0491 41.2514 34.1684 39.5597C33.2877 37.8681 32.8277 35.9891 32.8276 34.082Z" fill="#DF27E4"/>
</g>
<defs>
<filter id="filter0_d_1_129" x="3.96552" y="3.60352" width="44.7931" height="44.7931" filterUnits="userSpaceOnUse" color-interpolation-filters="sRGB">
<feFlood flood-opacity="0" result="BackgroundImageFix"/>
<feColorMatrix in="SourceAlpha" type="matrix" values="0 0 0 0 0 0 0 0 0 0 0 0 0 0 0 0 0 0 127 0" result="hardAlpha"/>
<feOffset/>
<feGaussianBlur stdDeviation="1.5"/>
<feComposite in2="hardAlpha" operator="out"/>
<feColorMatrix type="matrix" values="0 0 0 0 0.87451 0 0 0 0 0.152941 0 0 0 0 0.894118 0 0 0 1 0"/>
<feBlend mode="normal" in2="BackgroundImageFix" result="effect1_dropShadow_1_129"/>
<feBlend mode="normal" in="SourceGraphic" in2="effect1_dropShadow_1_129" result="shape"/>
</filter>
</defs>
</svg>
