<svg width="52" height="52" viewBox="0 0 52 52" fill="none" xmlns="http://www.w3.org/2000/svg">
<g clip-path="url(#clip0_1_139)">
<path fill-rule="evenodd" clip-rule="evenodd" d="M25.9741 2.83191H25.75C23.8125 2.83191 22.1983 2.83191 20.9181 3.00432C19.5647 3.18536 18.3427 3.58622 17.3621 4.56682C16.3793 5.54958 15.9784 6.77156 15.7974 8.12286C15.6746 9.04312 15.6379 11.2392 15.6293 13.1229C11.2716 13.2673 8.65302 13.7759 6.83621 15.5948C4.31034 18.1185 4.31034 22.1832 4.31034 30.3104C4.31034 38.4375 4.31034 42.5022 6.83621 45.0259C9.36207 47.5496 13.4246 47.5517 21.5517 47.5517H30.1724C38.2996 47.5517 42.3642 47.5517 44.8879 45.0259C47.4116 42.5 47.4138 38.4375 47.4138 30.3104C47.4138 22.1832 47.4138 18.1185 44.8879 15.5948C43.0711 13.7759 40.4526 13.2673 36.0948 13.125C36.0862 11.2392 36.0517 9.04312 35.9267 8.12501C35.7457 6.77156 35.3448 5.54958 34.3621 4.56898C33.3815 3.58622 32.1595 3.18536 30.806 3.00432C29.5259 2.83191 27.9095 2.83191 25.9741 2.83191ZM32.8621 13.0733C32.8513 11.2479 32.8211 9.28449 32.7241 8.55389C32.5884 7.56036 32.3578 7.13363 32.0776 6.85346C31.7974 6.57329 31.3707 6.34268 30.375 6.20691C29.3362 6.06898 27.9397 6.06467 25.8621 6.06467C23.7845 6.06467 22.3879 6.06898 21.347 6.20906C20.3534 6.34268 19.9267 6.57329 19.6466 6.85562C19.3664 7.13794 19.1358 7.56036 19 8.55389C18.903 9.28665 18.8707 11.2479 18.8621 13.0733C19.7069 13.069 20.6034 13.0675 21.5517 13.069H30.1724C31.1236 13.069 32.0201 13.0704 32.8621 13.0733ZM25.8621 20.0733C26.2908 20.0733 26.7019 20.2436 27.005 20.5467C27.3081 20.8498 27.4784 21.261 27.4784 21.6897V21.7112C29.8254 22.3017 31.7888 24.153 31.7888 26.7177C31.7888 27.1464 31.6185 27.5575 31.3154 27.8606C31.0122 28.1638 30.6011 28.3341 30.1724 28.3341C29.7437 28.3341 29.3326 28.1638 29.0295 27.8606C28.7263 27.5575 28.556 27.1464 28.556 26.7177C28.556 25.8901 27.6379 24.7435 25.8621 24.7435C24.0862 24.7435 23.1681 25.8901 23.1681 26.7177C23.1681 27.5453 24.0862 28.694 25.8621 28.694C28.847 28.694 31.7888 30.7629 31.7888 33.903C31.7888 36.4677 29.8254 38.3168 27.4784 38.9095V38.931C27.4784 39.3597 27.3081 39.7709 27.005 40.074C26.7019 40.3771 26.2908 40.5474 25.8621 40.5474C25.4334 40.5474 25.0222 40.3771 24.7191 40.074C24.416 39.7709 24.2457 39.3597 24.2457 38.931V38.9095C21.8987 38.319 19.9353 36.4677 19.9353 33.903C19.9353 33.4743 20.1056 33.0632 20.4088 32.7601C20.7119 32.4569 21.123 32.2866 21.5517 32.2866C21.9804 32.2866 22.3915 32.4569 22.6947 32.7601C22.9978 33.0632 23.1681 33.4743 23.1681 33.903C23.1681 34.7306 24.0862 35.8772 25.8621 35.8772C27.6379 35.8772 28.556 34.7306 28.556 33.903C28.556 33.0754 27.6379 31.9267 25.8621 31.9267C22.8772 31.9267 19.9353 29.8578 19.9353 26.7177C19.9353 24.153 21.8987 22.3017 24.2457 21.7112V21.6897C24.2457 21.261 24.416 20.8498 24.7191 20.5467C25.0222 20.2436 25.4334 20.0733 25.8621 20.0733Z" fill="#DF27E4"/>
<g filter="url(#filter0_d_1_139)">
<path fill-rule="evenodd" clip-rule="evenodd" d="M25.9741 2.83191H25.75C23.8125 2.83191 22.1983 2.83191 20.9181 3.00432C19.5647 3.18536 18.3427 3.58622 17.3621 4.56682C16.3793 5.54958 15.9784 6.77156 15.7974 8.12286C15.6746 9.04312 15.6379 11.2392 15.6293 13.1229C11.2716 13.2673 8.65302 13.7759 6.83621 15.5948C4.31034 18.1185 4.31034 22.1832 4.31034 30.3104C4.31034 38.4375 4.31034 42.5022 6.83621 45.0259C9.36207 47.5496 13.4246 47.5517 21.5517 47.5517H30.1724C38.2996 47.5517 42.3642 47.5517 44.8879 45.0259C47.4116 42.5 47.4138 38.4375 47.4138 30.3104C47.4138 22.1832 47.4138 18.1185 44.8879 15.5948C43.0711 13.7759 40.4526 13.2673 36.0948 13.125C36.0862 11.2392 36.0517 9.04312 35.9267 8.12501C35.7457 6.77156 35.3448 5.54958 34.3621 4.56898C33.3815 3.58622 32.1595 3.18536 30.806 3.00432C29.5259 2.83191 27.9095 2.83191 25.9741 2.83191ZM32.8621 13.0733C32.8513 11.2479 32.8211 9.28449 32.7241 8.55389C32.5884 7.56036 32.3578 7.13363 32.0776 6.85346C31.7974 6.57329 31.3707 6.34268 30.375 6.20691C29.3362 6.06898 27.9397 6.06467 25.8621 6.06467C23.7845 6.06467 22.3879 6.06898 21.347 6.20906C20.3534 6.34268 19.9267 6.57329 19.6466 6.85562C19.3664 7.13794 19.1358 7.56036 19 8.55389C18.903 9.28665 18.8707 11.2479 18.8621 13.0733C19.7069 13.069 20.6034 13.0675 21.5517 13.069H30.1724C31.1236 13.069 32.0201 13.0704 32.8621 13.0733ZM25.8621 20.0733C26.2908 20.0733 26.7019 20.2436 27.005 20.5467C27.3081 20.8498 27.4784 21.261 27.4784 21.6897V21.7112C29.8254 22.3017 31.7888 24.153 31.7888 26.7177C31.7888 27.1464 31.6185 27.5575 31.3154 27.8606C31.0122 28.1638 30.6011 28.3341 30.1724 28.3341C29.7437 28.3341 29.3326 28.1638 29.0295 27.8606C28.7263 27.5575 28.556 27.1464 28.556 26.7177C28.556 25.8901 27.6379 24.7435 25.8621 24.7435C24.0862 24.7435 23.1681 25.8901 23.1681 26.7177C23.1681 27.5453 24.0862 28.694 25.8621 28.694C28.847 28.694 31.7888 30.7629 31.7888 33.903C31.7888 36.4677 29.8254 38.3168 27.4784 38.9095V38.931C27.4784 39.3597 27.3081 39.7709 27.005 40.074C26.7019 40.3771 26.2908 40.5474 25.8621 40.5474C25.4334 40.5474 25.0222 40.3771 24.7191 40.074C24.416 39.7709 24.2457 39.3597 24.2457 38.931V38.9095C21.8987 38.319 19.9353 36.4677 19.9353 33.903C19.9353 33.4743 20.1056 33.0632 20.4088 32.7601C20.7119 32.4569 21.123 32.2866 21.5517 32.2866C21.9804 32.2866 22.3915 32.4569 22.6947 32.7601C22.9978 33.0632 23.1681 33.4743 23.1681 33.903C23.1681 34.7306 24.0862 35.8772 25.8621 35.8772C27.6379 35.8772 28.556 34.7306 28.556 33.903C28.556 33.0754 27.6379 31.9267 25.8621 31.9267C22.8772 31.9267 19.9353 29.8578 19.9353 26.7177C19.9353 24.153 21.8987 22.3017 24.2457 21.7112V21.6897C24.2457 21.261 24.416 20.8498 24.7191 20.5467C25.0222 20.2436 25.4334 20.0733 25.8621 20.0733Z" fill="#DF27E4"/>
</g>
</g>
<defs>
<filter id="filter0_d_1_139" x="1.31034" y="-0.168091" width="49.1034" height="50.7198" filterUnits="userSpaceOnUse" color-interpolation-filters="sRGB">
<feFlood flood-opacity="0" result="BackgroundImageFix"/>
<feColorMatrix in="SourceAlpha" type="matrix" values="0 0 0 0 0 0 0 0 0 0 0 0 0 0 0 0 0 0 127 0" result="hardAlpha"/>
<feOffset/>
<feGaussianBlur stdDeviation="1.5"/>
<feComposite in2="hardAlpha" operator="out"/>
<feColorMatrix type="matrix" values="0 0 0 0 0.87451 0 0 0 0 0.152941 0 0 0 0 0.894118 0 0 0 1 0"/>
<feBlend mode="normal" in2="BackgroundImageFix" result="effect1_dropShadow_1_139"/>
<feBlend mode="normal" in="SourceGraphic" in2="effect1_dropShadow_1_139" result="shape"/>
</filter>
<clipPath id="clip0_1_139">
<rect width="51.7241" height="51.7241" fill="white" transform="translate(0 0.137939)"/>
</clipPath>
</defs>
</svg>
